<svg xmlns="http://www.w3.org/2000/svg" width="64" height="64" shape-rendering="geometricPrecision" text-rendering="geometricPrecision" image-rendering="optimizeQuality" fill-rule="evenodd" clip-rule="evenodd" viewBox="0 0 640 640"><path d="M8.87 499.471h27.84V140.518H7.782c-4.287 0-7.783-3.484-7.783-7.772V10.748c0-4.275 3.496-7.771 7.783-7.771h125.883c4.288 0 7.772 3.496 7.772 7.771v25.264h357.123V10.748c0-4.275 3.496-7.771 7.784-7.771h125.883c4.287 0 7.772 3.496 7.772 7.771v121.998c0 4.288-3.485 7.772-7.772 7.772h-27.154v358.953h27.154c4.287 0 7.772 3.496 7.772 7.772V629.24c0 4.275-3.485 7.772-7.772 7.772H506.345c-4.288 0-7.784-3.497-7.784-7.772v-18.756H142.537v18.756c0 4.275-3.496 7.772-7.772 7.772H8.87c-4.275 0-7.771-3.497-7.771-7.772V507.243c0-4.276 3.496-7.772 7.771-7.772zm95.045 0h30.85c4.276 0 7.772 3.496 7.772 7.772v36.036h356.024v-36.036c0-4.276 3.496-7.772 7.784-7.772h31.524V140.518h-31.524c-4.288 0-7.784-3.484-7.784-7.772v-29.528H141.438v29.528c0 4.288-3.484 7.772-7.772 7.772h-29.752v358.953z"/></svg>