<svg width="19" height="19" viewBox="0 0 19 19" fill="none" xmlns="http://www.w3.org/2000/svg">
<path d="M3.875 18.3959H0.476562V5.71619H3.875V18.3959ZM0.277344 2.43494C0.277344 1.92712 0.445312 1.50916 0.78125 1.18103C1.125 0.852905 1.58984 0.688843 2.17578 0.688843C2.75391 0.688843 3.21484 0.852905 3.55859 1.18103C3.90234 1.50916 4.07422 1.92712 4.07422 2.43494C4.07422 2.95056 3.89844 3.37244 3.54688 3.70056C3.20312 4.02869 2.74609 4.19275 2.17578 4.19275C1.60547 4.19275 1.14453 4.02869 0.792969 3.70056C0.449219 3.37244 0.277344 2.95056 0.277344 2.43494ZM10.273 5.71619L10.3784 7.18103C11.2847 6.04822 12.4995 5.48181 14.023 5.48181C15.3667 5.48181 16.3667 5.87634 17.023 6.66541C17.6792 7.45447 18.0152 8.63416 18.0308 10.2045V18.3959H14.6441V10.2865C14.6441 9.56775 14.4878 9.04822 14.1753 8.72791C13.8628 8.39978 13.3433 8.23572 12.6167 8.23572C11.6636 8.23572 10.9488 8.64197 10.4722 9.45447V18.3959H7.08547V5.71619H10.273Z" fill="black"/>
</svg>
