<svg width="237" height="60" viewBox="0 0 237 60" fill="none" xmlns="http://www.w3.org/2000/svg">
<path d="M31.1718 18.2042C21.8451 14.8886 11.7076 14.6148 2.21558 17.422C1.83828 17.5123 1.48304 17.6777 1.17108 17.9083C0.859111 18.1389 0.596816 18.43 0.39985 18.7643C0.202884 19.0985 0.0752869 19.469 0.0246769 19.8536C-0.0259332 20.2383 0.00148172 20.6292 0.105285 21.003C0.624801 23.0879 1.38259 25.4833 2.29272 27.6551C2.30835 27.7059 2.33276 27.6815 2.33276 27.6307C2.20093 26.6122 2.98411 25.3261 4.5202 24.8583C11.9023 22.5089 19.8468 22.6141 27.1641 25.1581C27.434 25.2504 27.7196 25.2878 28.0042 25.2679C28.2887 25.2481 28.5664 25.1715 28.8209 25.0426C29.0754 24.9137 29.3015 24.7352 29.4859 24.5176C29.6702 24.2999 29.8092 24.0475 29.8945 23.7753C30.8046 20.8457 31.1718 18.8565 31.2626 18.3585C31.2782 18.2657 31.1962 18.2306 31.1718 18.2052V18.2042ZM8.66949 24.6493C7.55136 24.8827 6.0055 25.2499 4.84538 25.6347C2.52611 26.4344 2.63353 29.2566 3.86885 30.157C3.95967 29.6336 4.5202 28.9217 5.14518 28.6815C7.46054 27.7713 9.9468 27.2274 12.4604 27.0028C11.1831 26.4843 9.93703 25.7411 8.68609 24.6484L8.66949 24.6493ZM27.1328 30.2996C23.8008 28.734 20.1887 27.8523 16.5101 27.7065C12.8315 27.5608 9.16094 28.1539 5.71547 29.451C4.61101 29.8679 3.91963 31.2117 4.61101 32.487C5.81883 34.6707 7.18954 36.7602 8.71148 38.7378C8.49274 37.98 8.87945 36.5767 10.3638 36.1178C14.4691 34.8561 18.7766 35.3912 21.6398 36.5504C22.4484 36.8756 23.5929 36.6783 24.2345 35.7174C25.3286 34.0319 26.3237 32.2842 27.2148 30.4832C27.2549 30.4021 27.2149 30.3416 27.1328 30.2996ZM20.4807 40.4165C19.2797 39.81 18.1814 39.0189 17.2259 38.0718C16.7835 37.6294 16.1322 36.9937 15.4457 36.2359C13.8783 36.2359 12.3569 36.3931 10.73 36.9127C9.21928 37.3853 9.07768 39.1304 9.73879 40.0405C10.8569 41.434 11.6411 42.1859 12.892 43.4789C13.555 44.1291 14.4452 44.4954 15.3738 44.5C16.3024 44.5045 17.1962 44.147 17.8655 43.5033C18.842 42.5268 19.4426 41.8754 20.5461 40.6245C20.6115 40.5581 20.5861 40.4419 20.4797 40.4165H20.4807Z" fill="black"/>
<path d="M66.2645 15.68V22.72H55.1445V26.64H63.1445V33.32H55.1445V44H46.2645V15.68H66.2645ZM88.6324 39.72H79.1924L77.7924 44H68.4724L78.8324 15.68H89.0724L99.3924 44H90.0324L88.6324 39.72ZM86.4724 33.04L83.9124 25.16L81.3524 33.04H86.4724ZM113.69 44.28C110.303 44.28 107.503 43.4933 105.29 41.92C103.103 40.32 101.917 37.9867 101.73 34.92H111.17C111.303 36.5467 112.023 37.36 113.33 37.36C113.81 37.36 114.21 37.2533 114.53 37.04C114.877 36.8 115.05 36.44 115.05 35.96C115.05 35.2933 114.69 34.76 113.97 34.36C113.25 33.9333 112.13 33.4533 110.61 32.92C108.797 32.28 107.29 31.6533 106.09 31.04C104.917 30.4267 103.903 29.5333 103.05 28.36C102.197 27.1867 101.783 25.68 101.81 23.84C101.81 22 102.277 20.44 103.21 19.16C104.17 17.8533 105.463 16.8667 107.09 16.2C108.743 15.5333 110.597 15.2 112.65 15.2C116.117 15.2 118.863 16 120.89 17.6C122.943 19.2 124.023 21.4533 124.13 24.36H114.57C114.543 23.56 114.343 22.9867 113.97 22.64C113.597 22.2933 113.143 22.12 112.61 22.12C112.237 22.12 111.93 22.2533 111.69 22.52C111.45 22.76 111.33 23.1067 111.33 23.56C111.33 24.2 111.677 24.7333 112.37 25.16C113.09 25.56 114.223 26.0533 115.77 26.64C117.557 27.3067 119.023 27.9467 120.17 28.56C121.343 29.1733 122.357 30.0267 123.21 31.12C124.063 32.2133 124.49 33.5867 124.49 35.24C124.49 36.9733 124.063 38.5333 123.21 39.92C122.357 41.28 121.117 42.3467 119.49 43.12C117.863 43.8933 115.93 44.28 113.69 44.28ZM155.01 15.68V44H146.13V32.96H137.69V44H128.81V15.68H137.69V25.88H146.13V15.68H155.01ZM169.085 15.68V44H160.205V15.68H169.085ZM188.096 44.28C185.429 44.28 182.976 43.6533 180.736 42.4C178.522 41.1467 176.762 39.4133 175.456 37.2C174.149 34.9867 173.496 32.4933 173.496 29.72C173.496 26.9467 174.149 24.4533 175.456 22.24C176.762 20.0267 178.522 18.3067 180.736 17.08C182.976 15.8267 185.429 15.2 188.096 15.2C190.762 15.2 193.202 15.8267 195.416 17.08C197.629 18.3067 199.376 20.0267 200.656 22.24C201.962 24.4533 202.616 26.9467 202.616 29.72C202.616 32.4933 201.962 34.9867 200.656 37.2C199.376 39.4133 197.616 41.1467 195.376 42.4C193.162 43.6533 190.736 44.28 188.096 44.28ZM188.096 36C189.856 36 191.216 35.44 192.176 34.32C193.136 33.1733 193.616 31.64 193.616 29.72C193.616 27.7733 193.136 26.24 192.176 25.12C191.216 23.9733 189.856 23.4 188.096 23.4C186.309 23.4 184.936 23.9733 183.976 25.12C183.016 26.24 182.536 27.7733 182.536 29.72C182.536 31.64 183.016 33.1733 183.976 34.32C184.936 35.44 186.309 36 188.096 36ZM234.179 44H225.299L215.899 29.76V44H207.019V15.68H215.899L225.299 30.16V15.68H234.179V44Z" fill="black"/>
</svg>
