<svg width="22" height="23" viewBox="0 0 22 23" fill="none" xmlns="http://www.w3.org/2000/svg">
<path d="M10.946 5.72668C7.84058 5.72668 5.33569 8.23157 5.33569 11.337C5.33569 14.4425 7.84058 16.9474 10.946 16.9474C14.0515 16.9474 16.5564 14.4425 16.5564 11.337C16.5564 8.23157 14.0515 5.72668 10.946 5.72668ZM10.946 14.9845C8.93921 14.9845 7.29858 13.3488 7.29858 11.337C7.29858 9.32532 8.93433 7.68958 10.946 7.68958C12.9578 7.68958 14.5935 9.32532 14.5935 11.337C14.5935 13.3488 12.9529 14.9845 10.946 14.9845ZM18.0945 5.49719C18.0945 6.22473 17.5085 6.80579 16.7859 6.80579C16.0584 6.80579 15.4773 6.21985 15.4773 5.49719C15.4773 4.77454 16.0632 4.1886 16.7859 4.1886C17.5085 4.1886 18.0945 4.77454 18.0945 5.49719ZM21.8103 6.82532C21.7273 5.07239 21.3269 3.51965 20.0427 2.24036C18.7634 0.961059 17.2107 0.560669 15.4578 0.472778C13.6511 0.370239 8.23608 0.370239 6.42944 0.472778C4.6814 0.555786 3.12866 0.956177 1.84448 2.23547C0.560303 3.51477 0.164795 5.0675 0.0769043 6.82043C-0.0256348 8.62708 -0.0256348 14.0421 0.0769043 15.8488C0.159912 17.6017 0.560303 19.1544 1.84448 20.4337C3.12866 21.713 4.67651 22.1134 6.42944 22.2013C8.23608 22.3038 13.6511 22.3038 15.4578 22.2013C17.2107 22.1183 18.7634 21.7179 20.0427 20.4337C21.322 19.1544 21.7224 17.6017 21.8103 15.8488C21.9128 14.0421 21.9128 8.63196 21.8103 6.82532ZM19.4763 17.7872C19.0955 18.7443 18.3582 19.4816 17.3962 19.8673C15.9558 20.4386 12.5378 20.3068 10.946 20.3068C9.35425 20.3068 5.9314 20.4337 4.49585 19.8673C3.53882 19.4865 2.80151 18.7491 2.41577 17.7872C1.84448 16.3468 1.97632 12.9288 1.97632 11.337C1.97632 9.74524 1.84937 6.32239 2.41577 4.88684C2.79663 3.92981 3.53394 3.1925 4.49585 2.80676C5.93628 2.23547 9.35425 2.36731 10.946 2.36731C12.5378 2.36731 15.9607 2.24036 17.3962 2.80676C18.3533 3.18762 19.0906 3.92493 19.4763 4.88684C20.0476 6.32727 19.9158 9.74524 19.9158 11.337C19.9158 12.9288 20.0476 16.3517 19.4763 17.7872Z" fill="black"/>
</svg>
