<svg width="60" height="54" viewBox="0 0 60 54" fill="none" xmlns="http://www.w3.org/2000/svg">
<path d="M10.0391 0C11.2417 0 12.277 0.854873 12.5071 2.03646L12.6639 3.34016H56.6583C58.7811 3.34016 60.4752 5.45386 59.8792 7.58426L54.2322 27.6294C53.8243 29.0699 52.5067 30.0615 51.0113 30.0615H17.8508L18.8129 35.0717H51.0322C52.423 35.0717 53.542 36.1886 53.542 37.5768C53.542 38.9651 52.423 40.082 51.0322 40.082H16.6378C15.5293 40.082 14.494 39.2261 14.2639 38.0466L7.96228 5.01025H2.50978C1.12417 5.01025 0 3.88816 0 2.50512C0 1.12209 1.12417 0 2.50978 0H10.0391ZM13.3855 48.4324C13.3855 45.6663 15.6338 43.4221 18.4051 43.4221C21.1763 43.4221 23.4246 45.6663 23.4246 48.4324C23.4246 51.1985 21.1763 53.4426 18.4051 53.4426C15.6338 53.4426 13.3855 51.1985 13.3855 48.4324ZM53.542 48.4324C53.542 51.1985 51.2936 53.4426 48.5224 53.4426C45.7512 53.4426 43.5029 51.1985 43.5029 48.4324C43.5029 45.6663 45.7512 43.4221 48.5224 43.4221C51.2936 43.4221 53.542 45.6663 53.542 48.4324Z" fill="#7F7F7F"/>
</svg>
