<svg width="25" height="21" viewBox="0 0 25 21" fill="none" xmlns="http://www.w3.org/2000/svg">
<path d="M22.4302 5.45613C22.446 5.6782 22.446 5.90032 22.446 6.12239C22.446 12.8958 17.2906 20.7004 7.86802 20.7004C4.96509 20.7004 2.26841 19.8596 0 18.4003C0.412451 18.4479 0.808984 18.4637 1.2373 18.4637C3.63257 18.4637 5.83755 17.6548 7.59834 16.2747C5.3458 16.2271 3.45811 14.7518 2.80771 12.7214C3.125 12.7689 3.44224 12.8007 3.77539 12.8007C4.2354 12.8007 4.69546 12.7372 5.12373 12.6262C2.77603 12.1503 1.01519 10.0881 1.01519 7.59763V7.5342C1.69727 7.91492 2.49048 8.15286 3.33115 8.18455C1.95107 7.26448 1.04692 5.69407 1.04692 3.91741C1.04692 2.96565 1.30068 2.09319 1.74487 1.33176C4.26709 4.44089 8.05835 6.47131 12.3096 6.69343C12.2303 6.31272 12.1827 5.91619 12.1827 5.5196C12.1827 2.69597 14.4669 0.395874 17.3064 0.395874C18.7816 0.395874 20.1141 1.01453 21.05 2.01389C22.208 1.79182 23.3184 1.3635 24.302 0.776587C23.9212 1.96633 23.1122 2.9657 22.0494 3.60017C23.0805 3.48918 24.0799 3.20359 24.9999 2.80706C24.302 3.82224 23.4295 4.72639 22.4302 5.45613Z" fill="black"/>
</svg>
